<mxfile host="app.diagrams.net" agent="Mozilla/5.0 (Windows NT 10.0; Win64; x64) AppleWebKit/537.36 (KHTML, like Gecko) Chrome/131.0.0.0 Safari/537.36" version="24.9.1">
  <diagram id="C5RBs43oDa-KdzZeNtuy" name="Page-1">
    <mxGraphModel dx="641" dy="845" grid="1" gridSize="10" guides="1" tooltips="1" connect="1" arrows="1" fold="1" page="1" pageScale="1" pageWidth="827" pageHeight="1169" math="0" shadow="0">
      <root>
        <mxCell id="WIyWlLk6GJQsqaUBKTNV-0" />
        <mxCell id="WIyWlLk6GJQsqaUBKTNV-1" parent="WIyWlLk6GJQsqaUBKTNV-0" />
        <mxCell id="N5DchHFG2UHB0SAdNm-a-20" value="" style="edgeStyle=orthogonalEdgeStyle;rounded=0;orthogonalLoop=1;jettySize=auto;html=1;" edge="1" parent="WIyWlLk6GJQsqaUBKTNV-1" source="N5DchHFG2UHB0SAdNm-a-1" target="N5DchHFG2UHB0SAdNm-a-2">
          <mxGeometry relative="1" as="geometry" />
        </mxCell>
        <mxCell id="N5DchHFG2UHB0SAdNm-a-1" value="시작" style="strokeWidth=2;html=1;shape=mxgraph.flowchart.terminator;whiteSpace=wrap;fontSize=20;" vertex="1" parent="WIyWlLk6GJQsqaUBKTNV-1">
          <mxGeometry x="350" y="40" width="100" height="60" as="geometry" />
        </mxCell>
        <mxCell id="N5DchHFG2UHB0SAdNm-a-21" value="" style="edgeStyle=orthogonalEdgeStyle;rounded=0;orthogonalLoop=1;jettySize=auto;html=1;" edge="1" parent="WIyWlLk6GJQsqaUBKTNV-1" source="N5DchHFG2UHB0SAdNm-a-2" target="N5DchHFG2UHB0SAdNm-a-3">
          <mxGeometry relative="1" as="geometry" />
        </mxCell>
        <mxCell id="N5DchHFG2UHB0SAdNm-a-2" value="냄비를 준비한다.&lt;div&gt;물을 준비한다.&lt;/div&gt;&lt;div&gt;라면을 준비한다.&lt;/div&gt;" style="verticalLabelPosition=middle;verticalAlign=middle;html=1;shape=hexagon;perimeter=hexagonPerimeter2;arcSize=6;size=0.1566265060240964;labelPosition=center;align=center;fontSize=20;strokeWidth=2;" vertex="1" parent="WIyWlLk6GJQsqaUBKTNV-1">
          <mxGeometry x="267" y="150" width="266" height="90" as="geometry" />
        </mxCell>
        <mxCell id="N5DchHFG2UHB0SAdNm-a-22" value="" style="edgeStyle=orthogonalEdgeStyle;rounded=0;orthogonalLoop=1;jettySize=auto;html=1;" edge="1" parent="WIyWlLk6GJQsqaUBKTNV-1" source="N5DchHFG2UHB0SAdNm-a-3" target="N5DchHFG2UHB0SAdNm-a-4">
          <mxGeometry relative="1" as="geometry" />
        </mxCell>
        <mxCell id="N5DchHFG2UHB0SAdNm-a-3" value="냄비에 물을 넣는다." style="rounded=1;whiteSpace=wrap;html=1;absoluteArcSize=1;arcSize=14;strokeWidth=2;fontSize=20;" vertex="1" parent="WIyWlLk6GJQsqaUBKTNV-1">
          <mxGeometry x="285" y="280" width="230" height="90" as="geometry" />
        </mxCell>
        <mxCell id="N5DchHFG2UHB0SAdNm-a-23" value="&lt;font&gt;예&lt;/font&gt;" style="edgeStyle=orthogonalEdgeStyle;rounded=0;orthogonalLoop=1;jettySize=auto;html=1;fontSize=20;" edge="1" parent="WIyWlLk6GJQsqaUBKTNV-1" source="N5DchHFG2UHB0SAdNm-a-4" target="N5DchHFG2UHB0SAdNm-a-5">
          <mxGeometry relative="1" as="geometry" />
        </mxCell>
        <mxCell id="N5DchHFG2UHB0SAdNm-a-27" value="아니오" style="edgeStyle=orthogonalEdgeStyle;rounded=0;orthogonalLoop=1;jettySize=auto;html=1;exitX=0;exitY=0.5;exitDx=0;exitDy=0;exitPerimeter=0;entryX=0;entryY=0.5;entryDx=0;entryDy=0;fontSize=20;" edge="1" parent="WIyWlLk6GJQsqaUBKTNV-1" source="N5DchHFG2UHB0SAdNm-a-4" target="N5DchHFG2UHB0SAdNm-a-3">
          <mxGeometry relative="1" as="geometry">
            <Array as="points">
              <mxPoint x="230" y="460" />
              <mxPoint x="230" y="325" />
            </Array>
          </mxGeometry>
        </mxCell>
        <mxCell id="N5DchHFG2UHB0SAdNm-a-4" value="물의 양이&amp;nbsp;&lt;div&gt;적당한가?&lt;/div&gt;" style="strokeWidth=2;html=1;shape=mxgraph.flowchart.decision;whiteSpace=wrap;fontSize=20;" vertex="1" parent="WIyWlLk6GJQsqaUBKTNV-1">
          <mxGeometry x="312" y="410" width="176" height="100" as="geometry" />
        </mxCell>
        <mxCell id="N5DchHFG2UHB0SAdNm-a-24" value="" style="edgeStyle=orthogonalEdgeStyle;rounded=0;orthogonalLoop=1;jettySize=auto;html=1;fontSize=20;" edge="1" parent="WIyWlLk6GJQsqaUBKTNV-1" source="N5DchHFG2UHB0SAdNm-a-5" target="N5DchHFG2UHB0SAdNm-a-6">
          <mxGeometry relative="1" as="geometry" />
        </mxCell>
        <mxCell id="N5DchHFG2UHB0SAdNm-a-5" value="물을 끓인다" style="rounded=1;whiteSpace=wrap;html=1;absoluteArcSize=1;arcSize=14;strokeWidth=2;fontSize=20;" vertex="1" parent="WIyWlLk6GJQsqaUBKTNV-1">
          <mxGeometry x="285" y="550" width="230" height="90" as="geometry" />
        </mxCell>
        <mxCell id="N5DchHFG2UHB0SAdNm-a-25" value="예" style="edgeStyle=orthogonalEdgeStyle;rounded=0;orthogonalLoop=1;jettySize=auto;html=1;exitX=1;exitY=0.5;exitDx=0;exitDy=0;exitPerimeter=0;entryX=0;entryY=0.5;entryDx=0;entryDy=0;fontSize=20;" edge="1" parent="WIyWlLk6GJQsqaUBKTNV-1" source="N5DchHFG2UHB0SAdNm-a-6" target="N5DchHFG2UHB0SAdNm-a-7">
          <mxGeometry relative="1" as="geometry" />
        </mxCell>
        <mxCell id="N5DchHFG2UHB0SAdNm-a-26" value="아니오" style="edgeStyle=orthogonalEdgeStyle;rounded=0;orthogonalLoop=1;jettySize=auto;html=1;exitX=0;exitY=0.5;exitDx=0;exitDy=0;exitPerimeter=0;entryX=0;entryY=0.5;entryDx=0;entryDy=0;fontSize=20;" edge="1" parent="WIyWlLk6GJQsqaUBKTNV-1" source="N5DchHFG2UHB0SAdNm-a-6" target="N5DchHFG2UHB0SAdNm-a-5">
          <mxGeometry relative="1" as="geometry">
            <Array as="points">
              <mxPoint x="230" y="730" />
              <mxPoint x="230" y="595" />
            </Array>
          </mxGeometry>
        </mxCell>
        <mxCell id="N5DchHFG2UHB0SAdNm-a-6" value="물이 끓었는가?" style="strokeWidth=2;html=1;shape=mxgraph.flowchart.decision;whiteSpace=wrap;fontSize=20;" vertex="1" parent="WIyWlLk6GJQsqaUBKTNV-1">
          <mxGeometry x="312" y="680" width="176" height="100" as="geometry" />
        </mxCell>
        <mxCell id="N5DchHFG2UHB0SAdNm-a-28" value="" style="edgeStyle=orthogonalEdgeStyle;rounded=0;orthogonalLoop=1;jettySize=auto;html=1;" edge="1" parent="WIyWlLk6GJQsqaUBKTNV-1" source="N5DchHFG2UHB0SAdNm-a-7" target="N5DchHFG2UHB0SAdNm-a-8">
          <mxGeometry relative="1" as="geometry" />
        </mxCell>
        <mxCell id="N5DchHFG2UHB0SAdNm-a-7" value="라면과 스프를 넣는다." style="rounded=1;whiteSpace=wrap;html=1;absoluteArcSize=1;arcSize=14;strokeWidth=2;fontSize=20;" vertex="1" parent="WIyWlLk6GJQsqaUBKTNV-1">
          <mxGeometry x="708" y="280" width="230" height="90" as="geometry" />
        </mxCell>
        <mxCell id="N5DchHFG2UHB0SAdNm-a-29" value="" style="edgeStyle=orthogonalEdgeStyle;rounded=0;orthogonalLoop=1;jettySize=auto;html=1;" edge="1" parent="WIyWlLk6GJQsqaUBKTNV-1" source="N5DchHFG2UHB0SAdNm-a-8" target="N5DchHFG2UHB0SAdNm-a-9">
          <mxGeometry relative="1" as="geometry" />
        </mxCell>
        <mxCell id="N5DchHFG2UHB0SAdNm-a-8" value="면을 젓는다." style="rounded=1;whiteSpace=wrap;html=1;absoluteArcSize=1;arcSize=14;strokeWidth=2;fontSize=20;" vertex="1" parent="WIyWlLk6GJQsqaUBKTNV-1">
          <mxGeometry x="708" y="415" width="230" height="90" as="geometry" />
        </mxCell>
        <mxCell id="N5DchHFG2UHB0SAdNm-a-30" value="예" style="edgeStyle=orthogonalEdgeStyle;rounded=0;orthogonalLoop=1;jettySize=auto;html=1;fontSize=20;" edge="1" parent="WIyWlLk6GJQsqaUBKTNV-1" source="N5DchHFG2UHB0SAdNm-a-9" target="N5DchHFG2UHB0SAdNm-a-14">
          <mxGeometry relative="1" as="geometry" />
        </mxCell>
        <mxCell id="N5DchHFG2UHB0SAdNm-a-32" value="아니오" style="edgeStyle=orthogonalEdgeStyle;rounded=0;orthogonalLoop=1;jettySize=auto;html=1;exitX=1;exitY=0.5;exitDx=0;exitDy=0;exitPerimeter=0;entryX=0;entryY=0.5;entryDx=0;entryDy=0;fontSize=20;" edge="1" parent="WIyWlLk6GJQsqaUBKTNV-1" source="N5DchHFG2UHB0SAdNm-a-9" target="N5DchHFG2UHB0SAdNm-a-16">
          <mxGeometry x="-0.6733" relative="1" as="geometry">
            <Array as="points">
              <mxPoint x="1040" y="605" />
              <mxPoint x="1040" y="460" />
            </Array>
            <mxPoint as="offset" />
          </mxGeometry>
        </mxCell>
        <mxCell id="N5DchHFG2UHB0SAdNm-a-9" value="추가 재료를&lt;div&gt;넣을 것인가?&lt;/div&gt;" style="strokeWidth=2;html=1;shape=mxgraph.flowchart.decision;whiteSpace=wrap;fontSize=20;" vertex="1" parent="WIyWlLk6GJQsqaUBKTNV-1">
          <mxGeometry x="727.5" y="550" width="191" height="110" as="geometry" />
        </mxCell>
        <mxCell id="N5DchHFG2UHB0SAdNm-a-33" style="edgeStyle=orthogonalEdgeStyle;rounded=0;orthogonalLoop=1;jettySize=auto;html=1;exitX=1;exitY=0.5;exitDx=0;exitDy=0;entryX=0;entryY=0.5;entryDx=0;entryDy=0;" edge="1" parent="WIyWlLk6GJQsqaUBKTNV-1" source="N5DchHFG2UHB0SAdNm-a-10" target="N5DchHFG2UHB0SAdNm-a-16">
          <mxGeometry relative="1" as="geometry">
            <Array as="points">
              <mxPoint x="1040" y="875" />
              <mxPoint x="1040" y="460" />
            </Array>
          </mxGeometry>
        </mxCell>
        <mxCell id="N5DchHFG2UHB0SAdNm-a-10" value="추가 재료를 넣는다." style="rounded=1;whiteSpace=wrap;html=1;absoluteArcSize=1;arcSize=14;strokeWidth=2;fontSize=20;" vertex="1" parent="WIyWlLk6GJQsqaUBKTNV-1">
          <mxGeometry x="708" y="830" width="230" height="90" as="geometry" />
        </mxCell>
        <mxCell id="N5DchHFG2UHB0SAdNm-a-31" value="" style="edgeStyle=orthogonalEdgeStyle;rounded=0;orthogonalLoop=1;jettySize=auto;html=1;" edge="1" parent="WIyWlLk6GJQsqaUBKTNV-1" source="N5DchHFG2UHB0SAdNm-a-14" target="N5DchHFG2UHB0SAdNm-a-10">
          <mxGeometry relative="1" as="geometry" />
        </mxCell>
        <mxCell id="N5DchHFG2UHB0SAdNm-a-14" value="추가 재료를 준비한다." style="verticalLabelPosition=middle;verticalAlign=middle;html=1;shape=hexagon;perimeter=hexagonPerimeter2;arcSize=6;size=0.1566265060240964;labelPosition=center;align=center;fontSize=20;strokeWidth=2;" vertex="1" parent="WIyWlLk6GJQsqaUBKTNV-1">
          <mxGeometry x="690" y="700" width="266" height="90" as="geometry" />
        </mxCell>
        <mxCell id="N5DchHFG2UHB0SAdNm-a-35" value="예" style="edgeStyle=orthogonalEdgeStyle;rounded=0;orthogonalLoop=1;jettySize=auto;html=1;fontSize=20;" edge="1" parent="WIyWlLk6GJQsqaUBKTNV-1" source="N5DchHFG2UHB0SAdNm-a-15" target="N5DchHFG2UHB0SAdNm-a-17">
          <mxGeometry relative="1" as="geometry" />
        </mxCell>
        <mxCell id="N5DchHFG2UHB0SAdNm-a-38" value="아니오" style="edgeStyle=orthogonalEdgeStyle;rounded=0;orthogonalLoop=1;jettySize=auto;html=1;exitX=1;exitY=0.5;exitDx=0;exitDy=0;exitPerimeter=0;entryX=1;entryY=0.5;entryDx=0;entryDy=0;fontSize=20;" edge="1" parent="WIyWlLk6GJQsqaUBKTNV-1" source="N5DchHFG2UHB0SAdNm-a-15" target="N5DchHFG2UHB0SAdNm-a-16">
          <mxGeometry relative="1" as="geometry">
            <Array as="points">
              <mxPoint x="1450" y="600" />
              <mxPoint x="1450" y="460" />
            </Array>
          </mxGeometry>
        </mxCell>
        <mxCell id="N5DchHFG2UHB0SAdNm-a-15" value="면이 익었는가?" style="strokeWidth=2;html=1;shape=mxgraph.flowchart.decision;whiteSpace=wrap;fontSize=20;" vertex="1" parent="WIyWlLk6GJQsqaUBKTNV-1">
          <mxGeometry x="1169.5" y="545" width="191" height="110" as="geometry" />
        </mxCell>
        <mxCell id="N5DchHFG2UHB0SAdNm-a-34" value="" style="edgeStyle=orthogonalEdgeStyle;rounded=0;orthogonalLoop=1;jettySize=auto;html=1;" edge="1" parent="WIyWlLk6GJQsqaUBKTNV-1" source="N5DchHFG2UHB0SAdNm-a-16" target="N5DchHFG2UHB0SAdNm-a-15">
          <mxGeometry relative="1" as="geometry" />
        </mxCell>
        <mxCell id="N5DchHFG2UHB0SAdNm-a-16" value="면이 익기를 기다린다." style="rounded=1;whiteSpace=wrap;html=1;absoluteArcSize=1;arcSize=14;strokeWidth=2;fontSize=20;" vertex="1" parent="WIyWlLk6GJQsqaUBKTNV-1">
          <mxGeometry x="1150" y="415" width="230" height="90" as="geometry" />
        </mxCell>
        <mxCell id="N5DchHFG2UHB0SAdNm-a-36" value="" style="edgeStyle=orthogonalEdgeStyle;rounded=0;orthogonalLoop=1;jettySize=auto;html=1;" edge="1" parent="WIyWlLk6GJQsqaUBKTNV-1" source="N5DchHFG2UHB0SAdNm-a-17" target="N5DchHFG2UHB0SAdNm-a-18">
          <mxGeometry relative="1" as="geometry" />
        </mxCell>
        <mxCell id="N5DchHFG2UHB0SAdNm-a-17" value="라면을 그릇에 담는다." style="rounded=1;whiteSpace=wrap;html=1;absoluteArcSize=1;arcSize=14;strokeWidth=2;fontSize=20;" vertex="1" parent="WIyWlLk6GJQsqaUBKTNV-1">
          <mxGeometry x="1150" y="705" width="230" height="90" as="geometry" />
        </mxCell>
        <mxCell id="N5DchHFG2UHB0SAdNm-a-37" value="" style="edgeStyle=orthogonalEdgeStyle;rounded=0;orthogonalLoop=1;jettySize=auto;html=1;" edge="1" parent="WIyWlLk6GJQsqaUBKTNV-1" source="N5DchHFG2UHB0SAdNm-a-18" target="N5DchHFG2UHB0SAdNm-a-19">
          <mxGeometry relative="1" as="geometry" />
        </mxCell>
        <mxCell id="N5DchHFG2UHB0SAdNm-a-18" value="라면 완성" style="shape=parallelogram;html=1;strokeWidth=2;perimeter=parallelogramPerimeter;whiteSpace=wrap;rounded=1;arcSize=12;size=0.23;fontSize=20;" vertex="1" parent="WIyWlLk6GJQsqaUBKTNV-1">
          <mxGeometry x="1150" y="855" width="230" height="80" as="geometry" />
        </mxCell>
        <mxCell id="N5DchHFG2UHB0SAdNm-a-19" value="끝" style="strokeWidth=2;html=1;shape=mxgraph.flowchart.terminator;whiteSpace=wrap;fontSize=20;" vertex="1" parent="WIyWlLk6GJQsqaUBKTNV-1">
          <mxGeometry x="1215" y="980" width="100" height="60" as="geometry" />
        </mxCell>
      </root>
    </mxGraphModel>
  </diagram>
</mxfile>
